<?xml version="1.0" encoding="iso-8859-1"?>
<!-- Uploaded to: SVG Repo, www.svgrepo.com, Generator: SVG Repo Mixer Tools -->
<svg height="800px" width="800px" version="1.1" id="Layer_1" xmlns="http://www.w3.org/2000/svg" xmlns:xlink="http://www.w3.org/1999/xlink" 
	 viewBox="0 0 512 512" xml:space="preserve">
<g>
	<path style="fill:#FCC447;" d="M254.708,182.658c21.032,0,38.079,17.06,38.079,38.092c-21.032,0-38.079,17.048-38.079,38.079
		c0-21.032-17.048-38.079-38.079-38.079C216.628,199.717,233.676,182.658,254.708,182.658z"/>
	<path style="fill:#FCC447;" d="M368.958,144.577c21.032,0,38.079,17.048,38.079,38.079c-21.032,0-38.079,17.06-38.079,38.092
		c0-21.032-17.048-38.092-38.079-38.092C330.879,161.626,347.927,144.577,368.958,144.577z"/>
</g>
<path style="fill:#CEC73C;" d="M178.536,106.498c21.032,0,38.092,17.048,38.092,38.079c-21.032,0-38.092,17.048-38.092,38.079
	c0-21.032-17.048-38.079-38.079-38.079C140.457,123.546,157.504,106.498,178.536,106.498z"/>
<g>
	<path style="fill:#FC675B;" d="M254.708,106.498c21.032,0,38.079,17.048,38.079,38.079c-21.032,0-38.079,17.048-38.079,38.079
		c0-21.032-17.048-38.079-38.079-38.079C216.628,123.546,233.676,106.498,254.708,106.498z"/>
	<path style="fill:#FC675B;" d="M407.039,182.658c21.032,0,38.092,17.06,38.092,38.092c-21.032,0-38.092,17.048-38.092,38.079
		c0-21.032-17.048-38.079-38.079-38.079C368.958,199.717,386.007,182.658,407.039,182.658z"/>
	<path style="fill:#FC675B;" d="M330.879,258.829h-76.171c0-21.032,17.048-38.079,38.079-38.079
		C313.82,220.749,330.879,237.797,330.879,258.829z"/>
</g>
<path style="fill:#73D8D0;" d="M102.376,182.658c21.032,0,38.079,17.06,38.079,38.092c-21.032,0-38.079,17.048-38.079,38.079
	c0-21.032-17.06-38.079-38.092-38.079C64.285,199.717,81.345,182.658,102.376,182.658z"/>
<g>
	<path style="fill:#CEC73C;" d="M292.787,68.406c21.032,0,38.092,17.06,38.092,38.092c-21.032,0-38.092,17.048-38.092,38.079
		c0-21.032-17.048-38.079-38.079-38.079C254.708,85.466,271.755,68.406,292.787,68.406z"/>
	<path style="fill:#CEC73C;" d="M483.21,258.829h-76.171c0-21.032,17.06-38.079,38.092-38.079
		C466.163,220.749,483.21,237.797,483.21,258.829z"/>
</g>
<path style="fill:#FCC447;" d="M407.039,258.829h-76.16c0-21.032,17.048-38.079,38.079-38.079
	C389.991,220.749,407.039,237.797,407.039,258.829z"/>
<path style="fill:#73D8D0;" d="M330.879,106.498c21.032,0,38.079,17.048,38.079,38.079c-21.032,0-38.079,17.048-38.079,38.079
	c0-21.032-17.06-38.079-38.092-38.079C292.787,123.546,309.847,106.498,330.879,106.498z"/>
<path style="fill:#CEC73C;" d="M330.879,182.658c21.032,0,38.079,17.06,38.079,38.092c-21.032,0-38.079,17.048-38.079,38.079
	c0-21.032-17.06-38.079-38.092-38.079C292.787,199.717,309.847,182.658,330.879,182.658z"/>
<path style="fill:#FCC447;" d="M292.787,144.577c21.032,0,38.092,17.048,38.092,38.079c-21.032,0-38.092,17.06-38.092,38.092
	c0-21.032-17.048-38.092-38.079-38.092C254.708,161.626,271.755,144.577,292.787,144.577z"/>
<g>
	<path style="fill:#73D8D0;" d="M254.708,30.326c21.032,0,38.079,17.048,38.079,38.079c-21.032,0-38.079,17.06-38.079,38.092
		c0-21.032-17.048-38.092-38.079-38.092C216.628,47.374,233.676,30.326,254.708,30.326z"/>
	<path style="fill:#73D8D0;" d="M254.708,258.829h-76.172c0-21.032,17.06-38.079,38.092-38.079S254.708,237.797,254.708,258.829z"/>
</g>
<path style="fill:#FCC447;" d="M216.628,68.406c21.032,0,38.079,17.06,38.079,38.092c-21.032,0-38.079,17.048-38.079,38.079
	c0-21.032-17.06-38.079-38.092-38.079C178.536,85.466,195.596,68.406,216.628,68.406z"/>
<path style="fill:#73D8D0;" d="M216.628,144.577c21.032,0,38.079,17.048,38.079,38.079c-21.032,0-38.079,17.06-38.079,38.092
	c0-21.032-17.06-38.092-38.092-38.092C178.536,161.626,195.596,144.577,216.628,144.577z"/>
<path style="fill:#FC675B;" d="M178.536,182.658c21.032,0,38.092,17.06,38.092,38.092c-21.032,0-38.092,17.048-38.092,38.079
	c0-21.032-17.048-38.079-38.079-38.079C140.457,199.717,157.504,182.658,178.536,182.658z"/>
<path style="fill:#CEC73C;" d="M178.536,258.829h-76.16c0-21.032,17.048-38.079,38.079-38.079S178.536,237.797,178.536,258.829z"/>
<g>
	<path style="fill:#FCC447;" d="M140.457,144.577c21.032,0,38.079,17.048,38.079,38.079c-21.032,0-38.079,17.06-38.079,38.092
		c0-21.032-17.048-38.092-38.079-38.092C102.376,161.626,119.425,144.577,140.457,144.577z"/>
	<path style="fill:#FCC447;" d="M102.376,258.829H26.205c0-21.032,17.048-38.079,38.079-38.079S102.376,237.797,102.376,258.829z"/>
</g>
<path style="fill:#E6E6E6;" d="M364.039,481.673c82.584-40.15,139.509-124.845,139.509-222.842H8.252
	c0,97.997,56.925,182.692,139.509,222.842H364.039z"/>
<path style="fill:#CCCCCC;" d="M76.456,258.83H8.252c0,97.997,56.925,182.692,139.509,222.842h29.782
	C117.703,441.522,76.456,356.827,76.456,258.83z"/>
<path d="M503.647,250.475h-12.631c-3.348-19.386-18.743-34.679-38.164-37.882c-3.422-19.235-18.713-34.404-38.011-37.639
	c-3.261-19.442-18.638-34.818-38.079-38.079c-3.261-19.442-18.638-34.818-38.079-38.079c-3.261-19.448-18.643-34.831-38.092-38.092
	c-3.682-21.949-22.804-38.73-45.782-38.73s-42.102,16.781-45.783,38.73c-19.446,3.261-34.827,18.64-38.09,38.086
	c-2.862,0.478-5.672,1.217-8.406,2.227c-4.327,1.6-6.536,6.405-4.937,10.732c1.6,4.327,6.407,6.538,10.732,4.937
	c3.291-1.217,6.76-1.834,10.313-1.834c13.838,0,25.497,9.494,28.801,22.308c-11.868,2.419-22.096,9.382-28.8,18.978
	c-6.703-9.596-16.926-16.557-28.788-18.977c0.603-2.349,1.487-4.618,2.644-6.747c2.202-4.054,0.701-9.124-3.353-11.326
	c-4.054-2.203-9.124-0.699-11.327,3.352c-2.441,4.493-4.097,9.388-4.945,14.435c-19.447,3.256-34.83,18.635-38.092,38.082
	c-19.6,3.287-35.077,18.882-38.173,38.544c-19.03,3.245-34.134,18.096-37.764,36.979H8.353c-4.614,0-8.353,3.74-8.353,8.353
	c0,48.956,13.865,96.54,40.098,137.611c25.534,39.974,61.534,72.045,104.11,92.744c1.137,0.554,2.388,0.841,3.652,0.841h216.278
	c1.265,0,2.515-0.287,3.652-0.841c35.04-17.035,66.256-42.336,90.274-73.164c24.351-31.255,41.295-68.23,49.001-106.929
	c0.901-4.525-2.036-8.922-6.561-9.823c-4.529-0.903-8.923,2.037-9.823,6.561c-14.377,72.196-62.346,134.671-128.483,167.492H149.802
	c-39.059-19.374-72.093-49.033-95.624-85.872c-23.02-36.039-35.849-77.457-37.329-120.265h478.303
	c-0.131,3.839-0.353,7.67-0.665,11.459c-0.378,4.597,3.043,8.631,7.641,9.008c4.601,0.378,8.631-3.044,9.008-7.641
	c0.575-6.987,0.864-14.113,0.864-21.178C512,254.215,508.261,250.475,503.647,250.475z M473.919,250.475h-57.305
	c3.471-12.531,14.961-21.775,28.591-21.806c0.023,0,0.046,0,0.069,0C458.915,228.67,470.443,237.915,473.919,250.475z
	 M178.635,191.008c13.839,0,25.499,9.5,28.802,22.321c-11.868,2.418-22.096,9.381-28.801,18.978
	c-6.703-9.597-16.928-16.558-28.792-18.977C153.147,200.509,164.803,191.008,178.635,191.008z M226.017,137.158
	c3.303-12.814,14.959-22.308,28.79-22.308s25.487,9.495,28.79,22.308c-11.863,2.419-22.087,9.381-28.79,18.976
	C248.104,146.539,237.88,139.577,226.017,137.158z M330.977,232.307c-6.706-9.597-16.934-16.559-28.801-18.978
	c3.304-12.821,14.965-22.321,28.802-22.321c13.832,0,25.488,9.501,28.791,22.321C347.905,215.748,337.68,222.711,330.977,232.307z
	 M292.888,194.22c-6.703-9.599-16.927-16.563-28.791-18.983c3.303-12.814,14.959-22.309,28.79-22.309
	c13.838,0,25.497,9.495,28.802,22.309C309.821,177.656,299.593,184.621,292.888,194.22z M254.807,191.008
	c13.832,0,25.488,9.501,28.791,22.321c-11.863,2.419-22.088,9.381-28.791,18.976c-6.703-9.596-16.927-16.557-28.791-18.976
	C229.319,200.509,240.975,191.008,254.807,191.008z M140.556,229.1c13.491,0,24.906,9.038,28.525,21.375h-57.048
	C115.65,238.139,127.064,229.1,140.556,229.1z M216.728,229.1c13.491,0,24.906,9.038,28.525,21.375h-57.061
	C191.811,238.139,203.23,229.1,216.728,229.1z M292.887,229.1c13.498,0,24.917,9.038,28.536,21.375h-57.061
	C267.981,238.139,279.395,229.1,292.887,229.1z M369.059,229.1c13.491,0,24.906,9.038,28.525,21.375h-57.05
	C344.152,238.139,355.567,229.1,369.059,229.1z M435.827,212.93c-11.906,2.469-22.147,9.513-28.818,19.193
	c-6.706-9.501-16.874-16.391-28.661-18.794c3.302-12.821,14.959-22.321,28.791-22.321
	C420.831,191.008,432.385,200.313,435.827,212.93z M397.849,175.238c-11.863,2.419-22.087,9.383-28.79,18.981
	c-6.703-9.598-16.927-16.562-28.79-18.981c3.303-12.814,14.959-22.309,28.79-22.309S394.546,162.423,397.849,175.238z
	 M359.769,137.158c-11.864,2.419-22.088,9.382-28.791,18.977c-6.706-9.597-16.933-16.559-28.8-18.978
	c3.305-12.814,14.965-22.308,28.801-22.308C344.809,114.85,356.465,124.344,359.769,137.158z M321.689,99.079
	c-11.868,2.418-22.096,9.381-28.801,18.977c-6.703-9.596-16.928-16.558-28.792-18.977c3.302-12.821,14.959-22.321,28.791-22.321
	C306.725,76.758,318.386,86.258,321.689,99.079z M254.807,38.677c13.831,0,25.487,9.495,28.79,22.309
	c-11.863,2.419-22.087,9.383-28.79,18.981c-6.703-9.598-16.927-16.562-28.79-18.981C229.32,48.173,240.976,38.677,254.807,38.677z
	 M187.924,99.079c3.304-12.821,14.965-22.321,28.802-22.321c13.832,0,25.488,9.501,28.791,22.321
	c-11.864,2.419-22.089,9.382-28.792,18.977C210.021,108.459,199.793,101.496,187.924,99.079z M216.728,152.929
	c13.831,0,25.487,9.495,28.79,22.309c-11.864,2.419-22.088,9.384-28.791,18.983c-6.706-9.599-16.933-16.564-28.801-18.983
	C191.23,162.423,202.89,152.929,216.728,152.929z M140.556,152.929c13.831,0,25.487,9.495,28.79,22.309
	c-11.863,2.419-22.087,9.383-28.79,18.981c-6.703-9.598-16.927-16.562-28.789-18.981
	C115.07,162.423,126.725,152.929,140.556,152.929z M102.478,191.008c13.832,0,25.487,9.501,28.79,22.321
	c-11.931,2.432-22.206,9.46-28.907,19.14c-1.534-2.161-3.252-4.213-5.169-6.121c-6.563-6.531-14.73-10.861-23.608-12.626
	C76.749,200.705,88.498,191.008,102.478,191.008z M64.36,229.53c0.023,0,0.046,0,0.07,0c7.915,0,15.364,3.074,20.979,8.66
	c3.504,3.487,6.031,7.692,7.445,12.285H36.026C39.773,238.383,51.048,229.561,64.36,229.53z"/>
<path d="M91.292,296.969c-3.263-3.262-8.551-3.262-11.813,0l-6.19,6.19l-6.19-6.19c-3.263-3.262-8.551-3.262-11.813,0
	c-3.262,3.262-3.262,8.551,0,11.812l6.19,6.19l-6.19,6.19c-3.262,3.262-3.262,8.551,0,11.812c1.632,1.63,3.77,2.447,5.907,2.447
	c2.137,0,4.275-0.815,5.907-2.447l6.19-6.19l6.19,6.19c1.632,1.63,3.77,2.447,5.907,2.447c2.137,0,4.275-0.815,5.907-2.447
	c3.262-3.262,3.262-8.551,0-11.812l-6.19-6.19l6.19-6.19C94.552,305.52,94.552,300.231,91.292,296.969z"/>
<path d="M274.003,296.969c-3.263-3.262-8.551-3.262-11.813,0l-6.19,6.19l-6.19-6.19c-3.263-3.262-8.551-3.262-11.813,0
	c-3.262,3.262-3.262,8.551,0,11.812l6.19,6.19l-6.19,6.19c-3.262,3.262-3.262,8.551,0,11.812c1.632,1.63,3.77,2.447,5.907,2.447
	c2.137,0,4.275-0.815,5.907-2.447l6.19-6.19l6.19,6.19c1.632,1.63,3.77,2.447,5.907,2.447s4.275-0.815,5.907-2.447
	c3.262-3.262,3.262-8.551,0-11.812l-6.19-6.19l6.19-6.19C277.265,305.52,277.265,300.231,274.003,296.969z"/>
<path d="M365.359,296.969c-3.263-3.262-8.551-3.262-11.813,0l-6.19,6.19l-6.19-6.19c-3.263-3.262-8.551-3.262-11.813,0
	c-3.262,3.262-3.262,8.551,0,11.812l6.19,6.19l-6.19,6.19c-3.262,3.262-3.262,8.551,0,11.812c1.632,1.63,3.77,2.447,5.907,2.447
	s4.275-0.815,5.907-2.447l6.19-6.19l6.19,6.19c1.632,1.63,3.77,2.447,5.907,2.447c2.137,0,4.275-0.815,5.907-2.447
	c3.262-3.262,3.262-8.551,0-11.812l-6.19-6.19l6.19-6.19C368.62,305.52,368.62,300.231,365.359,296.969z"/>
<path d="M182.648,296.969c-3.263-3.262-8.552-3.263-11.812,0l-6.191,6.191l-6.191-6.191c-3.261-3.263-8.55-3.262-11.812,0
	c-3.262,3.262-3.262,8.551,0.001,11.812l6.19,6.19l-6.19,6.19c-3.263,3.262-3.263,8.55-0.001,11.812
	c1.632,1.632,3.769,2.447,5.907,2.447c2.137,0,4.275-0.815,5.906-2.447l6.191-6.191l6.191,6.191c1.63,1.632,3.769,2.447,5.906,2.447
	c2.137,0,4.275-0.815,5.907-2.447c3.262-3.262,3.262-8.551-0.001-11.812l-6.19-6.19l6.19-6.19
	C185.91,305.52,185.91,300.231,182.648,296.969z"/>
<path d="M456.715,296.969c-3.263-3.262-8.551-3.262-11.813,0l-6.19,6.19l-6.19-6.19c-3.263-3.262-8.551-3.262-11.813,0
	c-3.262,3.262-3.262,8.551,0,11.812l6.19,6.19l-6.19,6.19c-3.262,3.262-3.262,8.551,0,11.812c1.632,1.63,3.77,2.447,5.907,2.447
	c2.137,0,4.275-0.815,5.907-2.447l6.19-6.19l6.19,6.19c1.632,1.63,3.77,2.447,5.907,2.447s4.275-0.815,5.907-2.447
	c3.262-3.262,3.262-8.551,0-11.812l-6.19-6.19l6.19-6.19C459.977,305.52,459.977,300.231,456.715,296.969z"/>
</svg>